<svg height="512" viewBox="0 0 60 60" width="512" xmlns="http://www.w3.org/2000/svg"><g id="Page-1" fill="none" fill-rule="evenodd"><g id="005---Get-Points" fill-rule="nonzero" transform="translate(-1)"><g id="Icons" transform="translate(2 1)"><path id="Shape" d="m21.571 1.023 2.361 4.977c.2469969.53239915.7424796.90719694 1.322 1l5.236.791c.679496.13516328 1.2296864.63290523 1.4320212 1.29550963.2023347.6626044.0240552 1.38279397-.4640212 1.87449037l-3.758 3.808c-.4251169.4379237-.6160289 1.0522595-.514 1.654l.891 5.4c.1439457.6696062-.1092922 1.3623846-.6511381 1.7813068-.5418459.4189223-1.2760653.4895856-1.8878619.1816932l-4.73-2.586c-.5030489-.277028-1.1129511-.277028-1.616 0l-4.732 2.588c-.6117966.3078924-1.346016.2372291-1.8878619-.1816932-.5418459-.4189222-.7950838-1.1117006-.6511381-1.7813068l.891-5.4c.1020289-.6017405-.0888831-1.2160763-.514-1.654l-3.756-3.809c-.48807639-.4916964-.66635587-1.21188597-.46402115-1.87449037s.75252514-1.16034635 1.43202115-1.29550963l5.236-.792c.5795204-.09280306 1.0750031-.46760085 1.322-1l2.361-4.973c.274382-.62206948.8898046-1.02380707 1.5696981-1.02467263.6798934-.00086555 1.296337.39930378 1.5723019 1.02067263z" fill="#ffeb3a"/><path id="Shape" d="m31.458 10.962c.4880764-.4916964.6663559-1.21188597.4640212-1.87449037-.2023348-.6626044-.7525252-1.16034635-1.4320212-1.29550963l-5.236-.792c-.5795204-.09280306-1.0750031-.46760085-1.322-1l-2.361-4.977c-.2648496-.59807506-.8480013-.99236884-1.5016913-1.01535761s-1.2630995.32936537-1.5693087.90735761c.022.039.052.067.071.108l2.361 4.977c.2469969.53239915.7424796.90719694 1.322 1l5.236.791c.679496.13516328 1.2296864.63290523 1.4320212 1.29550963.2023347.6626044.0240552 1.38279397-.4640212 1.87449037l-3.758 3.808c-.4251169.4379237-.6160289 1.0522595-.514 1.654l.891 5.4c.093136.531936-.0467205 1.0782504-.384 1.5l.845.462c.6117966.3078924 1.346016.2372291 1.8878619-.1816932.5418459-.4189222.7950838-1.1117006.6511381-1.7813068l-.891-5.4c-.1020289-.6017405.0888831-1.2160763.514-1.654z" fill="#fdd834"/><path id="Shape" d="m51.32 32.7-4.69 4.76c-.5317274.5484418-.7727614 1.3160424-.65 2.07l.59 3.57-2.67 2.23c-.377407-1.3909403-1.6489023-2.3497053-3.09-2.33h-10.19c-.4387493.0082643-.8666479-.1367262-1.21-.41-.5212712-.4314309-1.104459-.7820179-1.73-1.04l.34-2.02c.1227614-.7539576-.1182726-1.5215582-.65-2.07l-4.69-4.76c-.6102594-.6141315-.8332283-1.5141646-.5802315-2.3421541s.9409394-1.4496885 1.7902315-1.6178459l6.54-.99c.7249585-.1189529 1.3453703-.5861305 1.66-1.25l2.95-6.22c.3404386-.7789855 1.1098724-1.2824248 1.96-1.2824248s1.6195614.5034393 1.96 1.2824248l2.95 6.22c.3146297.6638695.9350415 1.1310471 1.66 1.25l6.54.99c.8492921.1681574 1.5372347.7898564 1.7902315 1.6178459s.0300279 1.7280226-.5802315 2.3421541z" fill="#ffdc00"/><path id="Shape" d="m50.11 28.74-6.54-.99c-.7249585-.1189529-1.3453703-.5861305-1.66-1.25l-2.95-6.22c-.2816902-.6467757-.8663877-1.1112742-1.5601123-1.2393927s-1.4057628.0968961-1.8998877.6003927c.1889223.1849766.3445352.4011432.46.639l2.95 6.22c.3146297.6638695.9350415 1.1310471 1.66 1.25l6.54.99c.8492921.1681574 1.5372347.7898564 1.7902315 1.6178459s.0300279 1.7280226-.5802315 2.3421541l-4.69 4.76c-.5317274.5484418-.7727614 1.3160424-.65 2.07l.59 3.57-.73.609c.5268688.4045533.9006332.9761307 1.06 1.621l2.67-2.23-.59-3.57c-.1227614-.7539576.1182726-1.5215582.65-2.07l4.69-4.76c.6102594-.6141315.8332283-1.5141646.5802315-2.3421541s-.9409394-1.4496885-1.7902315-1.6178459z" fill="#fec108"/><path id="Shape" d="m45.916 2.6 1.377 2.9c.1437556.31165327.4331703.53133849.772.586l3.054.461c.3956043.08023359.7154848.37070015.8333882.75675576.1179035.3860556.0148877.80567698-.2683882 1.09324424l-2.191 2.22c-.2478234.2556241-.3592121.6139245-.3.965l.52 3.151c.0836883.3905194-.0641012.7944178-.3800683 1.0387003s-.7440642.2856171-1.1009317.1062997l-2.76-1.508c-.2938376-.1619161-.6501624-.1619161-.944 0l-2.76 1.508c-.3568675.1793174-.7849646.1379828-1.1009317-.1062997s-.4637566-.6481809-.3800683-1.0387003l.52-3.151c.0592121-.3510755-.0521766-.7093759-.3-.965l-2.191-2.217c-.2832759-.28756726-.3862917-.70718864-.2683882-1.09324424.1179034-.38605561.4377839-.67652217.8333882-.75675576l3.054-.461c.3388297-.05466151.6282444-.27434673.772-.586l1.377-2.9c.1587335-.36405631.5178634-.59967337.9150194-.60032374.397156-.00065036.7570556.23378925.9169806.59732374z" fill="#ff9801"/><path id="Shape" d="m51.684 8.4c.2832759-.28756726.3862917-.70718864.2683882-1.09324424-.1179034-.38605561-.4377839-.67652217-.8333882-.75675576l-3.054-.461c-.3387449-.05429641-.6280081-.27415144-.771-.586l-1.378-2.903c-.1593301-.36379438-.5188446-.59882174-.916-.59882174s-.7566699.23502736-.916.59882174l-.584 1.226.794 1.674c.1429919.31184856.4322551.53170359.771.586l3.054.461c.3956043.08023359.7154848.37070015.8333882.75675576.1179035.3860556.0148877.80567698-.2683882 1.09324424l-2.191 2.22c-.2478234.2556241-.3592121.6139245-.3.965l.52 3.151c.0173506.1057791.0203778.2134129.009.32l1.51.825c.3568675.1793174.7849646.1379828 1.1009317-.1062997s.4637566-.6481809.3800683-1.0387003l-.52-3.151c-.0592121-.3510755.0521766-.7093759.3-.965z" fill="#f57c00"/><path id="Shape" d="m57.11 42.13-12.48 12.71c-.7044456.7144301-1.6571305 1.1298866-2.66 1.16h-18.06c-1.2776824.0019108-2.5434.2462317-3.73.72l-3.18 1.28h-17v-2s5-4 7-6c8-8 13.97-9 17.97-9 1.6186441.0045818 3.1864133.5660127 4.44 1.59.3433521.2732738.7712507.4182643 1.21.41h10.19c1.4410977-.0197053 2.712593.9390597 3.09 2.33l2.67-2.23 6.45-5.4c1.2342078-1.0365035 3.0650432-.9203343 4.1583449.2638531 1.0933018 1.1841875 1.0632109 3.0184579-.0683449 4.1661469z" fill="#ffe0b2"/><path id="Shape" d="m57.27 38.08c-.9389796-1.1233948-2.5504392-1.4075216-3.817-.673.3102878.1738176.5869792.4017409.817.673.9898731 1.1923887.9208547 2.9394178-.16 4.05l-12.48 12.71c-.7044456.7144301-1.6571305 1.1298866-2.66 1.16h3c1.0028695-.0301134 1.9555544-.4455699 2.66-1.16l12.48-12.71c1.0808547-1.1105822 1.1498731-2.8576113.16-4.05z" fill="#dfc49c"/></g><g id="Icons_copy" fill="#000"><path id="Shape" d="m13.587 16.472c.2008213.2094702.2892903.5023844.238.788l-.891 5.4c-.1917006 1.0892664.2595673 2.1917606 1.16 2.834.8362004.6007982 1.9435534.6665777 2.845.169l4.731-2.583c.2047421-.1145153.4542579-.1145153.659 0l4.732 2.586c.9016144.4968354 2.0085451.431081 2.845-.169.9004327-.6422394 1.3517006-1.7447336 1.16-2.834l-.891-5.4c-.0522126-.2858473.0367966-.579317.239-.788l3.756-3.807c.7685384-.7818342 1.0304877-1.930232.677-2.968-.3165339-1.00015177-1.1709039-1.73567649-2.207-1.9l-5.24-.788c-.2516411-.0444531-.4646172-.21130934-.568-.445l-2.358-4.967c-.4399997-.97131645-1.407672-1.59529486-2.474-1.59529486s-2.0340003.62397841-2.474 1.59529486l-2.361 4.967c-.1033828.23369066-.3163589.4005469-.568.445l-5.237.788c-1.0360961.16432351-1.8904661.89984823-2.207 1.9-.35390151 1.0380628-.09192496 2.1869673.677 2.969zm-2.537-6.145c.0824066-.2831567.3185601-.49488045.609-.546l5.241-.791c.9093187-.14368635 1.6875564-.73036362 2.076-1.565l2.361-4.973c.1088044-.27306261.3730585-.45222754.667-.45222754s.5581956.17916493.667.45222754l2.361 4.973c.3869057.83252873 1.1616674 1.41884499 2.068 1.565l5.237.791c.2904399.05111955.5265934.2628433.609.546.114084.3238652.036809.6843531-.2.933l-3.756 3.807c-.6495827.6654344-.9426939 1.6008638-.789 2.518l.891 5.4c.0670707.3345484-.0669111.6775105-.343.878-.2121837.1593043-.4988346.1769988-.729.045l-4.732-2.587c-.8024654-.4393549-1.7735346-.4393549-2.576 0l-4.732 2.59c-.2301654.1319988-.5168163.1143043-.729-.045-.2760889-.2004895-.4100707-.5434516-.343-.878l.891-5.4c.1536939-.9171362-.1394173-1.8525656-.789-2.518l-3.757-3.81c-.2378577-.2480145-.3163086-.6085795-.203-.933z"/><path id="Shape" d="m41.8 12.317c.0228246.0279395.0319914.0646065.025.1l-.52 3.151c-.1389393.7926497.1902303 1.5945628.846 2.061.6174674.4427432 1.4343712.4913684 2.1.125l2.744-1.509 2.76 1.509c.6656288.3663684 1.4825326.3177432 2.1-.125.6558237-.4658862.9847529-1.2677729.845-2.06l-.519-3.152c-.0071264-.0352413.0016553-.0718317.024-.1l2.195-2.217c.5589011-.56927358.748552-1.40528566.49-2.16-.235511-.73032244-.8627037-1.26542888-1.621-1.383l-3.069-.489-1.377-2.9c-.3249062-.71311799-1.0363539-1.1707835-1.82-1.1707835s-1.4950938.45766551-1.82 1.1707835l-1.397 2.932-3.054.462c-.7576713.11654016-1.3850755.64994975-1.622 1.379-.2586229.75439393-.0689405 1.59015776.49 2.159zm-.77-3.783 3.055-.461c.667691-.10436121 1.2395279-.53445761 1.525-1.147l1.39-2.926c.0079953.00788858.0141427.01745124.018.028l1.378 2.9c.2852803.61227794.8566821 1.04232902 1.524 1.147l3.055.46v.159l-2.194 2.222c-.4707775.4839528-.6831587 1.1630529-.572 1.829l.52 3.152c.0068853.0346667-.000311.0706482-.02.1l-2.758-1.507c-.5918239-.3242795-1.3081761-.3242795-1.9 0l-2.741 1.51s-.051-.02-.036-.107l.52-3.152c.1108767-.6664708-.1027107-1.3458646-.575-1.829l-2.191-2.22-.712.7z"/><path id="Shape" d="m2 58c.2271603.0001065.44758781-.0771313.625-.219.206-.165 5.066-4.058 7.082-6.074 7.805-7.807 13.593-8.707 17.268-8.707 1.387261-.0080818 2.7328997.4735152 3.8 1.36.5238479.4213091 1.1777938.647539 1.85.64h10.185c1.1069341-.0303018 2.0498473.7983453 2.162 1.9.0274116.5475372-.1711377 1.0823229-.5492225 1.4793119s-.902555.6213738-1.4507775.6206881h-11c-.5522847 0-1 .4477153-1 1s.4477153 1 1 1h11c1.0964996-.0001897 2.1448465-.4504963 2.8998911-1.2456184s1.1505786-1.865337 1.0941089-2.9603816c0-.014-.006-.026-.006-.04l8.7-7.287c.4100525-.343488.9399046-.5097424 1.4726864-.4620921.5327819.0476502 1.0247223.3052902 1.3673136.7160921.6573128.799776.611753 1.964989-.106 2.711l-12.478 12.7c-.5123162.5273146-1.2074061.8379933-1.942.868h-18.065c-1.4049486-.0008111-2.7969262.2687572-4.1.794l-3.179 1.278c-.5125202.2060022-.7610022.7884798-.555 1.301s.7884798.7610022 1.301.555l3.179-1.279c1.0662001-.4288614 2.2047808-.6491771 3.354-.649h18.091c1.2613089-.036002 2.4597132-.5588704 3.344-1.459l12.48-12.706c1.50333-1.5286337 1.5420474-3.968173.0879834-5.5437428-1.4540639-1.5755697-3.8888686-1.7323417-5.5329834-.3562572l-5.111 4.278-.3-1.838c-.0738511-.440401.064823-.8897941.374-1.212l4.688-4.763c.8968506-.9088915 1.2024029-2.2468929.789-3.455-.3674086-1.1588604-1.3581361-2.0105996-2.559-2.2l-6.539-.99c-.3978705-.0663366-.7375154-.3244368-.908-.69l-2.949-6.219c-.5057608-1.1283433-1.6269918-1.8544846-2.8635-1.8544846s-2.3577392.7261413-2.8635 1.8544846l-2.944 6.207c-.1698722.3699398-.5116459.6319787-.913.7l-6.537.99c-1.2021064.1881319-2.1943155 1.0401459-2.562 2.2-.4133976 1.2068114-.1086259 2.5436248.787 3.452l4.688 4.758c.3065404.3189875.4463771.7629135.378 1.2l-.147.873c-.6259286-.1519337-1.2678982-.2278151-1.912-.226-4.031 0-10.352.963-18.682 9.293-1.938 1.937-6.868 5.887-6.918 5.926-.33177906.2653089-.45972255.7112818-.31905458 1.1121292.14066797.4008475.51924155.6690701.94405458.6688708zm28.083-20.242-4.693-4.758c-.362612-.3750634-.4829215-.9224525-.311-1.415.1286159-.4459452.5028576-.7777391.961-.852l6.541-.99c1.0518456-.172051 1.9528246-.8481587 2.412-1.81l2.951-6.221c.1743981-.4302318.592265-.7117387 1.0565-.7117387s.8821019.2815069 1.0565.7117387l2.956 6.234c.4598975.9573552 1.3586871 1.629487 2.407 1.8l6.543.99c.4567362.0751596.8295221.4063087.958.851.1701.4923601.0491147 1.0385332-.313 1.413l-4.691 4.761c-.753998.7772381-1.096554 1.8649644-.924 2.934l.5 3.01-1.245 1.042c-.7951173-1.1051348-2.0765861-1.7563058-3.438-1.747h-10.188c-.2072337.0075032-.410701-.0567867-.576-.182-.39049-.3200932-.8107424-.6020474-1.255-.842l.217-1.29c.1701508-1.0672215-.1726172-2.152221-.925-2.928z"/></g></g></g></svg>