<svg id="Capa_1" enable-background="new 0 0 512 512" height="512" viewBox="0 0 512 512" width="512" xmlns="http://www.w3.org/2000/svg"><g id="Idea"><path d="m384 224c0 47.359-25.6 88.639-64 110.719v81.281h-128v-81.281c-38.4-22.08-64-63.359-64-110.719 0-70.721 57.279-128 128-128s128 57.279 128 128z" fill="#ffce33"/><path d="m320 416v32c0 17.6-14.4 32-32 32v32h-64v-32c-17.6 0-32-14.4-32-32v-32z" fill="#fffa64"/><path d="m192 384h128v32h-128z" fill="#ffa65c"/><g fill="#ffce33"><path d="m240 0h32v64h-32z"/><path d="m81.608 65.608h32v64h-32z" transform="matrix(.707 -.707 .707 .707 -40.431 97.608)"/><path d="m398.392 382.392h32v64h-32z" transform="matrix(.707 -.707 .707 .707 -171.647 414.392)"/><path d="m398.392 65.608h32v64h-32z" transform="matrix(-.707 -.707 .707 -.707 638.392 459.647)"/><path d="m81.608 382.392h32v64h-32z" transform="matrix(-.707 -.707 .707 -.707 -126.392 776.431)"/><path d="m16 224h32v64h-32z" transform="matrix(0 -1 1 0 -224 288)"/><path d="m464 224h32v64h-32z" transform="matrix(0 -1 1 0 224 736)"/></g><path d="m320 192v32c0 29.76-20.48 54.719-48 61.76v98.24h-32v-98.24c-27.52-7.041-48-32-48-61.76v-32h32v32c0 17.6 14.4 32 32 32s32-14.4 32-32v-32z" fill="#fffa64"/></g></svg>